# xmcd
#
# Track frame offsets: 
#        150
#        16611
#        32392
#        47332
#        63766
#        80589
#        99717
#        113447
#        127448
#        145531
#        160077
#        177282
#        191959
#        204948
#        224985
#        239330
#        256493
#        272790
#
# Disc length: 3940 seconds
#
# Revision: 2
# Processed by: cddbd v1.5.2PL0 Copyright (c) Steve Scherf et al.
# Submitted via: ExactAudioCopy v1.3
#
DISCID=fb0f6212
DTITLE=Jacek Szyłkowski - Moja Tęsknota
DYEAR=2013
DGENRE=Pop
TTITLE0=Moja tęsknota
TTITLE1=Gdzie moja młodość
TTITLE2=Córeczka
TTITLE3=Ciechocinek mon amour
TTITLE4=Jeszcze czas
TTITLE5=Dla Luizy
TTITLE6=Chodź, chodź dziewczyno
TTITLE7=Nigdy więcej
TTITLE8=Nie moja wina
TTITLE9=Świat dziecinnych lat
TTITLE10=Nie widzę Ciebie
TTITLE11=Zimny drań
TTITLE12=Nie płacz, kiedy odjadę
TTITLE13=Tylko Twoje oczy
TTITLE14=Biały krzyż
TTITLE15=Kiedyś przecież spotkamy się znów
TTITLE16=Zielone wzgórza nad Soliną
TTITLE17=Ave Maryja
EXTD=
EXTT0=
EXTT1=
EXTT2=
EXTT3=
EXTT4=
EXTT5=
EXTT6=
EXTT7=
EXTT8=
EXTT9=
EXTT10=
EXTT11=
EXTT12=
EXTT13=
EXTT14=
EXTT15=
EXTT16=
EXTT17=
PLAYORDER=
